<?xml version="1.0" standalone="no"?><svg xmlns="http://www.w3.org/2000/svg" viewBox="0 0 1440 320"><path fill="#e7008a" fill-opacity="0.85" d="M0,160L21.8,149.3C43.6,139,87,117,131,112C174.5,107,218,117,262,144C305.5,171,349,213,393,213.3C436.4,213,480,171,524,160C567.3,149,611,171,655,186.7C698.2,203,742,213,785,192C829.1,171,873,117,916,122.7C960,128,1004,192,1047,224C1090.9,256,1135,256,1178,245.3C1221.8,235,1265,213,1309,186.7C1352.7,160,1396,128,1418,112L1440,96L1440,0L1418.2,0C1396.4,0,1353,0,1309,0C1265.5,0,1222,0,1178,0C1134.5,0,1091,0,1047,0C1003.6,0,960,0,916,0C872.7,0,829,0,785,0C741.8,0,698,0,655,0C610.9,0,567,0,524,0C480,0,436,0,393,0C349.1,0,305,0,262,0C218.2,0,175,0,131,0C87.3,0,44,0,22,0L0,0Z"></path></svg>